<?xml version="1.0" encoding="utf-8"?>
<!-- Generator: Adobe Illustrator 23.0.3, SVG Export Plug-In . SVG Version: 6.00 Build 0)  -->
<svg version="1.1" id="Capa_1" xmlns="http://www.w3.org/2000/svg" xmlns:xlink="http://www.w3.org/1999/xlink" x="0px" y="0px"
	 viewBox="0 0 394.9 394.9" style="enable-background:new 0 0 394.9 394.9;" xml:space="preserve">
<style type="text/css">
	.st0{fill:#EF3827;}
	.st1{fill:#FFD203;}
</style>
<g>
	<path class="st0" d="M5.8,150C32,44.2,139.1-20.4,244.9,5.8C350.8,32,415.3,139,389.1,244.9C362.9,350.7,255.9,415.3,150,389.1
		C44.2,362.9-20.4,255.9,5.8,150"/>
	<path class="st0" d="M11.5,131.1h371.9C361.9,71,311.6,22.3,244.9,5.8C145.5-18.8,45.1,36.6,11.5,131.1"/>
	<path class="st1" d="M390.7,238.1c0.1-0.4,0.2-0.8,0.3-1.3c0.1-0.7,0.3-1.5,0.4-2.2c0.1-0.4,0.2-0.9,0.2-1.3
		c0.1-0.8,0.3-1.5,0.4-2.3c0.1-0.4,0.1-0.8,0.2-1.1c0.2-0.9,0.3-1.9,0.5-2.8c0-0.2,0.1-0.4,0.1-0.6c0.2-1.1,0.3-2.3,0.5-3.4
		c0-0.3,0.1-0.6,0.1-0.9c0.1-0.8,0.2-1.7,0.3-2.5c0-0.4,0.1-0.8,0.1-1.2c0.1-0.8,0.2-1.5,0.2-2.2c0-0.4,0.1-0.8,0.1-1.2
		c0.1-0.8,0.1-1.5,0.2-2.3c0-0.4,0.1-0.8,0.1-1.2c0.1-0.9,0.1-1.7,0.2-2.6c0-0.3,0-0.5,0.1-0.8c0.1-1.1,0.1-2.3,0.2-3.4
		c0-0.2,0-0.4,0-0.6c0-0.9,0.1-1.9,0.1-2.8c0-0.4,0-0.7,0-1.1c0-0.8,0-1.6,0-2.3c0-0.4,0-0.8,0-1.2c0-0.8,0-1.5,0-2.3
		c0-0.4,0-0.8,0-1.1c0-0.8,0-1.7-0.1-2.5c0-0.3,0-0.6,0-0.9c-0.1-2.3-0.2-4.5-0.4-6.8c0-0.3,0-0.6-0.1-0.9c-0.1-0.8-0.1-1.6-0.2-2.5
		c0-0.4-0.1-0.7-0.1-1.1c-0.1-0.8-0.2-1.5-0.2-2.3c0-0.4-0.1-0.7-0.1-1.1c-0.1-0.8-0.2-1.6-0.3-2.5c0-0.3-0.1-0.6-0.1-0.9
		c-0.3-2.2-0.6-4.5-1-6.7c0-0.2-0.1-0.4-0.1-0.6c-0.1-0.9-0.3-1.8-0.5-2.7c-0.1-0.3-0.1-0.6-0.2-0.9c-0.1-0.8-0.3-1.6-0.5-2.4
		c-0.1-0.3-0.1-0.6-0.2-1c-0.2-0.8-0.3-1.6-0.5-2.5c-0.1-0.3-0.1-0.5-0.2-0.8c-0.2-1-0.5-2-0.7-3l-0.1-0.2c-0.3-1-0.5-2.1-0.8-3.1h0
		c-1.5-5.8-3.2-11.5-5.2-17.1H11.5c-2.2,6.1-4.1,12.4-5.7,18.9c-6.6,26.5-7.4,53.1-3.4,78.4c0,0.1,0,0.2,0.1,0.3
		c0.1,0.9,0.3,1.9,0.5,2.8c0,0.2,0.1,0.4,0.1,0.6c0.2,0.9,0.3,1.7,0.5,2.6c0,0.3,0.1,0.5,0.2,0.8c0.2,0.8,0.3,1.6,0.5,2.4
		c0.1,0.3,0.1,0.6,0.2,0.9c0.2,0.8,0.3,1.5,0.5,2.3c0.1,0.4,0.2,0.7,0.3,1.1c0.2,0.7,0.3,1.4,0.5,2.2c0.1,0.5,0.3,1.1,0.4,1.6
		c0.2,0.8,0.4,1.6,0.6,2.4c0.2,0.8,0.4,1.6,0.7,2.4c0.1,0.4,0.2,0.7,0.3,1c0.2,0.8,0.4,1.5,0.7,2.3c0.1,0.4,0.2,0.7,0.3,1.1
		c0.2,0.7,0.5,1.5,0.7,2.2c0.1,0.3,0.2,0.7,0.3,1c0.2,0.7,0.5,1.5,0.7,2.2c0.1,0.3,0.2,0.7,0.3,1c0.3,0.8,0.5,1.5,0.8,2.3
		c0.1,0.2,0.1,0.4,0.2,0.5h0c0.2,0.5,0.3,0.9,0.5,1.4h370.4c0.2-0.5,0.3-0.9,0.5-1.4h0c0.4-1.2,0.8-2.3,1.2-3.5
		c0-0.1,0.1-0.2,0.1-0.3c0.5-1.5,1-3.1,1.5-4.6c0.1-0.2,0.1-0.4,0.2-0.6c0.4-1.4,0.9-2.9,1.3-4.4c0.1-0.3,0.2-0.6,0.3-0.9
		c0.5-1.7,0.9-3.5,1.4-5.2c0.3-1.1,0.6-2.3,0.8-3.4c0.1-0.4,0.2-0.7,0.2-1.1C390.3,239.6,390.5,238.8,390.7,238.1"/>
</g>
</svg>
