<?xml version="1.0" encoding="utf-8"?>
<!-- Generator: Adobe Illustrator 23.0.3, SVG Export Plug-In . SVG Version: 6.00 Build 0)  -->
<svg version="1.1" id="Capa_1" xmlns="http://www.w3.org/2000/svg" xmlns:xlink="http://www.w3.org/1999/xlink" x="0px" y="0px"
	 viewBox="0 0 394.9 394.9" style="enable-background:new 0 0 394.9 394.9;" xml:space="preserve">
<style type="text/css">
	.st0{fill:url(#SVGID_1_);}
	.st1{clip-path:url(#SVGID_3_);fill:url(#SVGID_4_);}
	.st2{fill:#223C72;}
	.st3{fill:#EFEBE7;}
	.st4{fill:#EF3827;}
	.st5{fill:#303F66;}
</style>
<linearGradient id="SVGID_1_" gradientUnits="userSpaceOnUse" x1="-3264.5798" y1="2249.6406" x2="-3264.5798" y2="2249.6406" gradientTransform="matrix(-44.2276 -70.779 -70.779 44.2276 14964.0537 -330608.4688)">
	<stop  offset="0" style="stop-color:#EFEBE7"/>
	<stop  offset="0.3258" style="stop-color:#EFEBE7"/>
	<stop  offset="0.7444" style="stop-color:#F1EDE9"/>
	<stop  offset="0.9061" style="stop-color:#F6F3F0"/>
	<stop  offset="1" style="stop-color:#FFFFFF"/>
</linearGradient>
<path class="st0" d="M121.3-48.6"/>
<g>
	<g>
		<defs>
			<path id="SVGID_2_" d="M197.3,0C108.6,0,28.1,60.1,5.8,150C-20.4,255.9,44.2,362.9,150,389.1c105.9,26.2,212.9-38.4,239.1-144.2
				C415.3,139,350.7,32,244.9,5.8C228.9,1.9,213,0,197.3,0C197.3,0,197.3,0,197.3,0"/>
		</defs>
		<clipPath id="SVGID_3_">
			<use xlink:href="#SVGID_2_"  style="overflow:visible;"/>
		</clipPath>
		
			<radialGradient id="SVGID_4_" cx="-3263.7317" cy="2264.0327" r="1" gradientTransform="matrix(197.4678 0 0 -197.4678 644679.375 447271.0312)" gradientUnits="userSpaceOnUse">
			<stop  offset="0" style="stop-color:#FFFFFF"/>
			<stop  offset="0.7809" style="stop-color:#FFFFFF"/>
			<stop  offset="0.8218" style="stop-color:#F6F4F1"/>
			<stop  offset="0.8832" style="stop-color:#E5DED9"/>
			<stop  offset="0.9571" style="stop-color:#C9C0B7"/>
			<stop  offset="1" style="stop-color:#B6ABA1"/>
		</radialGradient>
		<rect x="-20.4" class="st1" width="435.7" height="415.3"/>
	</g>
	<g>
		<path class="st2" d="M5.8,150C32,44.2,139-20.4,244.9,5.8C350.7,32,415.3,139,389.1,244.9C362.9,350.7,255.9,415.3,150,389.1
			C44.2,362.9-20.4,255.9,5.8,150"/>
	</g>
	<g>
		<path class="st3" d="M337.5,58.3l-79.4,52.9V9.6c-4.3-1.4-8.7-2.7-13.2-3.8c-37.2-9.2-74.6-7.2-108.6,3.9v101.5L57.2,58.5
			c-18.1,18.2-32.8,40.2-42.8,65.1l20.9,14h-26c-1.3,4.1-2.5,8.3-3.5,12.5c-9.3,37.5-7.2,75.2,4.1,109.3h25.9l-20.7,13.8
			c10,24.1,24.8,46.2,43.5,64.6l77.7-51.8v99.1c4.5,1.5,9.1,2.8,13.7,3.9c37.1,9.2,74.3,7.2,108.1-3.7V286l78,52
			c18.3-18,33.3-39.8,43.6-64.6l-21.1-14.1h26.4c1.6-4.7,3-9.6,4.2-14.5c9.1-36.8,7.2-73.7-3.5-107.4h-26.5l21.4-14.2
			C370.6,99.1,356,76.9,337.5,58.3"/>
	</g>
	<g>
		<path class="st4" d="M105.9,137.5L32.6,88.8c-4.9,7.4-9.3,15.2-13.2,23.3l38.3,25.5H105.9z M362,88.4
			c-4.9-7.4-10.4-14.5-16.3-21.3l-87.6,58.3v12.1h30L362,88.4z M33.1,306.9c4.9,7.4,10.4,14.5,16.3,21.2l86.8-57.7v-11h-31.7
			L33.1,306.9z M391.9,162.9H232.7V3.2c-24.1-4.4-48.1-4.2-71.1,0v159.6H3.1C-1.2,187-0.9,211,3.4,234h158.3v157.6
			c24.1,4.5,48.1,4.3,71.1,0.2V234h158.7C396,209.9,396,185.9,391.9,162.9 M289.8,259.4l71.8,47.8c4.9-7.4,9.4-15.1,13.3-23.2
			L338,259.4L289.8,259.4z"/>
	</g>
	<g>
		<path class="st5" d="M258.1,30.2L258.1,30.2V43c0.8-2.4,1.2-4.7,1.2-6.9C259.3,34,258.9,32,258.1,30.2"/>
	</g>
</g>
</svg>
