<?xml version="1.0" encoding="utf-8"?>
<!-- Generator: Adobe Illustrator 23.0.3, SVG Export Plug-In . SVG Version: 6.00 Build 0)  -->
<svg version="1.1" id="Capa_1" xmlns="http://www.w3.org/2000/svg" xmlns:xlink="http://www.w3.org/1999/xlink" x="0px" y="0px"
	 viewBox="0 0 394.9 394.9" style="enable-background:new 0 0 394.9 394.9;" xml:space="preserve">
<style type="text/css">
	.st0{fill:#F1F2F2;}
	.st1{fill:#EF3827;}
	.st2{fill:#223C72;}
</style>
<path class="st0" d="M5.8,150C32,44.2,139.1-20.4,244.9,5.8C350.8,32,415.3,139,389.1,244.9C362.9,350.7,255.9,415.3,150,389.1
	C44.2,362.9-20.4,255.9,5.8,150"/>
<path class="st1" d="M380.1,122.4H227.1v30.2h162.7C387.4,142.2,384.1,132.1,380.1,122.4 M341,61.9H227.1v30.3h137.3
	C357.7,81.4,349.8,71.2,341,61.9 M54.9,334h285.2c8.8-9.2,16.8-19.3,23.8-30.2H31.1C38,314.6,46,324.7,54.9,334 M244.9,5.8
	C239,4.4,233,3.2,227.1,2.3v29.4h77.6C286.9,20.1,266.8,11.2,244.9,5.8 M394.4,182.8H227.1v30.3h167.2
	C395.1,202.9,395.1,192.8,394.4,182.8 M15.3,273.6h364.4c3.8-9.2,7-18.7,9.4-28.7c0.1-0.5,0.2-1,0.4-1.6H5.4
	C7.9,253.7,11.2,263.8,15.3,273.6 M150,389.1c11.7,2.9,23.4,4.7,35,5.4h25.1c33.4-2.1,65.3-12.8,92.9-30.3H91.8
	C109.3,375.3,128.8,383.8,150,389.1"/>
<path class="st2" d="M212.2,202l-4.3-3.1l-4.3,3.1l1.6-5l-4.3-3.1h5.3l1.6-5l1.6,5h5.3l-4.3,3.1L212.2,202z M191.2,42.9l1.6,5
	l-4.3-3.1l-4.3,3.1l1.6-5l-4.3-3.1h5.3l1.6-5l1.6,5h5.3L191.2,42.9z M191.2,88.4l1.6,5l-4.3-3.1l-4.3,3.1l1.6-5l-4.3-3.1h5.3l1.6-5
	l1.6,5h5.3L191.2,88.4z M190.8,132.9l1.6,5l-4.3-3.1l-4.3,3.1l1.6-5l-4.3-3.1h5.3l1.6-5l1.6,5h5.3L190.8,132.9z M192,181.9l-4.3-3.1
	l-4.3,3.1l1.6-5l-4.3-3.1h5.3l1.6-5l1.6,5h5.3l-4.3,3.1L192,181.9z M171,64.9l1.6,5l-4.3-3.1l-4.3,3.1l1.6-5l-4.3-3.1h5.3l1.6-5
	l1.6,5h5.3L171,64.9z M171,109l1.6,5l-4.3-3.1l-4.3,3.1l1.6-5l-4.3-3.1h5.3l1.6-5l1.6,5h5.3L171,109z M171,154l1.6,5l-4.3-3.1
	l-4.3,3.1l1.6-5l-4.3-3.1h5.3l1.6-5l1.6,5h5.3L171,154z M172.7,202l-4.3-3.1l-4.3,3.1l1.6-5l-4.3-3.1h5.3l1.6-5l1.6,5h5.3L171,197
	L172.7,202z M151.7,42.9l1.6,5l-4.3-3.1l-4.3,3.1l1.6-5l-4.3-3.1h5.3l1.6-5l1.6,5h5.3L151.7,42.9z M151.7,88.4l1.6,5l-4.3-3.1
	l-4.3,3.1l1.6-5l-4.3-3.1h5.3l1.6-5l1.6,5h5.3L151.7,88.4z M151.3,132.9l1.6,5l-4.3-3.1l-4.3,3.1l1.6-5l-4.3-3.1h5.3l1.6-5l1.6,5
	h5.3L151.3,132.9z M152.6,181.9l-4.3-3.1l-4.3,3.1l1.6-5l-4.3-3.1h5.3l1.6-5l1.6,5h5.3l-4.3,3.1L152.6,181.9z M131.6,20.9l1.6,5
	l-4.3-3.1l-4.3,3.1l1.6-5l-4.3-3.1h5.3l1.6-5l1.6,5h5.3L131.6,20.9z M131.6,64.9l1.6,5l-4.3-3.1l-4.3,3.1l1.6-5l-4.3-3.1h5.3l1.6-5
	l1.6,5h5.3L131.6,64.9z M131.6,109l1.6,5l-4.3-3.1l-4.3,3.1l1.6-5l-4.3-3.1h5.3l1.6-5l1.6,5h5.3L131.6,109z M131.6,154l1.6,5
	l-4.3-3.1l-4.3,3.1l1.6-5l-4.3-3.1h5.3l1.6-5l1.6,5h5.3L131.6,154z M133.2,202l-4.3-3.1l-4.3,3.1l1.6-5l-4.3-3.1h5.3l1.6-5l1.6,5
	h5.3l-4.3,3.1L133.2,202z M112.2,41.3l1.6,5l-4.3-3.1l-4.3,3.1l1.6-5l-4.3-3.1h5.3l1.6-5l1.6,5h5.3L112.2,41.3z M112.2,86.8l1.6,5
	l-4.3-3.1l-4.3,3.1l1.6-5l-4.3-3.1h5.3l1.6-5l1.6,5h5.3L112.2,86.8z M111.8,131.3l1.6,5l-4.3-3.1l-4.3,3.1l1.6-5l-4.3-3.1h5.3l1.6-5
	l1.6,5h5.3L111.8,131.3z M113.1,180.4l-4.3-3.1l-4.3,3.1l1.6-5l-4.3-3.1h5.3l1.6-5l1.6,5h5.3l-4.3,3.1L113.1,180.4z M92.1,64.9
	l1.6,5l-4.3-3.1l-4.3,3.1l1.6-5l-4.3-3.1h5.3l1.7-5l1.6,5h5.3L92.1,64.9z M92.1,109l1.6,5l-4.3-3.1l-4.3,3.1l1.6-5l-4.3-3.1h5.3
	l1.7-5l1.6,5h5.3L92.1,109z M92.1,154l1.6,5l-4.3-3.1l-4.3,3.1l1.6-5l-4.3-3.1h5.3l1.7-5l1.6,5h5.3L92.1,154z M93.8,202l-4.3-3.1
	l-4.3,3.1l1.6-5l-4.3-3.1h5.3l1.7-5l1.6,5h5.3l-4.3,3.1L93.8,202z M72.8,86.3l1.6,5l-4.3-3.1l-4.3,3.1l1.6-5l-4.3-3.1h5.3l1.6-5
	l1.6,5H77L72.8,86.3z M72.4,130.9l1.6,5l-4.3-3.1l-4.3,3.1l1.6-5l-4.3-3.1h5.3l1.6-5l1.6,5h5.3L72.4,130.9z M73.6,179.9l-4.3-3.1
	l-4.3,3.1l1.6-5l-4.3-3.1h5.3l1.6-5l1.6,5h5.3l-4.3,3.1L73.6,179.9z M166.8,17.8l1.6-5l1.6,5h5.3l-4.3,3.1l1.6,5l-4.3-3.1l-4.3,3.1
	l1.6-5l-4.3-3.1H166.8z M206.3,150.9l1.6-5l1.6,5h5.3l-4.3,3.1l1.6,5l-4.3-3.1l-4.3,3.1l1.6-5l-4.3-3.1H206.3z M206.3,105.9l1.6-5
	l1.6,5h5.3l-4.3,3.1l1.6,5l-4.3-3.1l-4.3,3.1l1.6-5l-4.3-3.1H206.3z M206.3,61.8l1.6-5l1.6,5h5.3l-4.3,3.1l1.6,5l-4.3-3.1l-4.3,3.1
	l1.6-5l-4.3-3.1H206.3z M206.3,17.8l1.6-5l1.6,5h5.3l-4.3,3.1l1.6,5l-4.3-3.1l-4.3,3.1l1.6-5l-4.3-3.1H206.3z M52.6,109l1.6,5
	l-4.3-3.1l-4.3,3.1l1.6-5l-4.3-3.1h5.3l1.6-5l1.6,5h5.3L52.6,109z M52.6,154l1.6,5l-4.3-3.1l-4.3,3.1l1.6-5l-4.3-3.1h5.3l1.6-5
	l1.6,5h5.3L52.6,154z M54.3,202l-4.3-3.1l-4.3,3.1l1.6-5l-4.3-3.1h5.3l1.6-5l1.6,5h5.3l-4.3,3.1L54.3,202z M32.9,130.1l1.6,5
	l-4.3-3.1l-4.3,3.1l1.6-5l-4.3-3.1h5.3l1.6-5l1.6,5h5.3L32.9,130.1z M34.1,179.1l-4.3-3.1l-4.3,3.1l1.6-5L23,171h5.3l1.6-5l1.6,5
	h5.3l-4.3,3.1L34.1,179.1z M14.8,202l-4.3-3.1L6.3,202l1.6-5l-4.3-3.1h5.3l1.6-5l1.6,5h5.3l-4.3,3.1L14.8,202z M227.1,2.3
	c-1.9-0.3-16.3-1.9-18.3-2.1l-35.5,1.3C136.6,6,102.1,20.8,73.7,43.7l0.7,2.2l-1.8-1.3C66,49.9,59.8,55.7,54,61.8h2.9l-4.3,3.1
	l1.6,5L50,66.9l-1.7,1.2c-4,4.6-7.8,9.4-11.3,14.3h0.6l-1.2,0.9c-0.9,1.2-1.7,2.5-2.6,3.7l1.1,3.5l-2.3-1.7
	c-12,18.2-21.2,38.8-26.7,61.2c-0.1,0.3-0.1,0.6-0.2,0.9h3.3l1.6-5l1.6,5h5.3l-4.3,3.1l1.6,5l-4.3-3.1L6.3,159l1.6-5l-2.5-1.8
	c-4.9,20.6-6.3,41.2-4.7,61.2h226.5V2.3z"/>
</svg>
